<svg width="32" height="32" viewBox="0 0 32 32" fill="none" xmlns="http://www.w3.org/2000/svg">
<path d="M1.86818e-06 2.5C8.36414e-07 1.11929 1.11929 1.55745e-07 2.5 3.47866e-07L29.5 4.10482e-06C30.8807 4.29694e-06 32 1.11929 32 2.5V29.5C32 30.8807 30.8807 32 29.5 32H2.50002C1.11931 32 2.30763e-05 30.8807 2.20445e-05 29.5L1.86818e-06 2.5Z" fill="#254D74"/>
<path d="M32.004 14.53V20.2L31.8496 20.1601L31.0391 19.9124L30.3863 19.6871L29.8235 19.4394L29.3732 19.2141L28.8104 18.8762L28.4277 18.6059L28.0675 18.3356L28.0225 18.2906L28 13.2L28.6078 13.4478L29.5083 13.7857L30.5664 14.146L31.8046 14.4839L32.004 14.53Z" fill="white"/>
<path d="M9.17826 18.0267H9.22505L9.3888 18.2178L10.3947 19.2453L10.4415 19.2692L14.0909 19.293L14.278 19.3169L14.3014 19.2214L14.3248 19.6037L14.4184 19.9143L14.5587 20.1771L14.9564 20.5833L15.2137 20.7983L15.4945 21.0134L15.8922 21.2523L16.477 21.539L16.9215 21.6824L17.5063 21.8257L18.2315 21.993L18.8865 22.2319L18.9333 22.2797L18.5356 22.3275L18.1613 22.5186L17.904 22.6859L17.3893 22.7098L16.6641 22.7815L16.2431 22.877L15.8688 23.0682L15.4711 23.331L15.4009 23.3788H14.3248L13.506 23.4983L12.7107 23.6894L12.0556 23.8806H11.6346L10.4181 23.7611L10.0204 23.7372H8.21914L7.96181 23.785L7.75127 23.9045H7.70448L7.65769 24L7.61091 23.9761L4.63995 23.9522L4.68674 23.8567L4.96746 23.4983L5.20139 23.1877L5.48211 22.8293L5.71605 22.5186L5.97337 22.1841L6.30088 21.7541L6.55821 21.4196L6.86232 21.0373L7.11965 20.7028L7.35358 20.3921L7.65769 20.0098L7.93842 19.6276L8.24253 19.2453L8.45307 18.9585L8.73379 18.6001L8.96772 18.2895L9.17826 18.0267Z" fill="#CA9C82"/>
<path d="M4.63995 12.48H13.6067L13.6301 12.503V15.4667L18.4764 15.4897V12.48H27.4666L27.3261 12.6409L27.0218 12.9395L26.8579 13.1233L25.5468 14.4099L25.383 14.5937L24.4699 15.4897L24.306 15.6735L22.4799 17.4655L22.316 17.6493L21.52 18.4304L21.4732 18.4534H10.61L10.3759 18.2236L10.1886 18.0628L10.0247 17.879L9.41599 17.2817L9.25211 17.0979L8.17516 16.0411L8.01128 15.8573L7.77716 15.6505L7.26209 15.1451L7.09821 14.9613L5.97444 13.8585L5.81055 13.6747L4.87407 12.7557L4.71019 12.5719L4.63995 12.48Z" fill="#CA9C82"/>
<path d="M28.0831 13.1201H28.0597L27.9893 13.167L26.4412 14.7168L26.2771 14.9047L24.9166 16.2666L24.7525 16.4545L24.3537 16.8536L24.1895 17.0415L23.6266 17.6051L23.7908 17.8164L24.0488 18.1451L24.3537 18.5208L24.7055 18.9905L25.0105 19.3662L25.2685 19.6949L25.5968 20.1176L26.1129 20.7751L26.3943 21.1273L26.6993 21.5265L26.8869 21.7613L27.1449 22.09L27.2856 22.3014L27.3326 22.3953L27.6609 22.7475L27.8486 22.9119L28.1066 23.1467L28.0831 13.1201Z" fill="#CA9C82"/>
<path d="M9.51164 8H12.4914L14.88 8.02295L14.8563 8.18363L14.6671 8.78042L14.336 9.79038L13.934 11.0758L13.7685 11.6037L13.7448 11.6267H4.63995L4.78185 11.466L5.11293 11.1217L5.39672 10.8233L5.68051 10.5478L5.84605 10.3642L6.08254 10.1347L6.24808 9.95105L6.67376 9.53789L6.83931 9.35426L7.05215 9.14768L7.21769 8.96405L7.73797 8.45907L7.90351 8.27544L8.0927 8.09181L8.14 8.02295L9.51164 8Z" fill="#CA9C82"/>
<path d="M19.7556 8H22.3491L24.0395 8.02295L24.3174 8.32135L24.4795 8.48203L24.6416 8.66565L24.9658 9.00996L25.2437 9.30835L25.8457 9.90515L26.0078 10.0888L26.1699 10.2495L26.332 10.4331L26.7025 10.8233L27.073 11.1905L27.2351 11.3742L27.4667 11.5808V11.6267H18.5515L18.482 11.443L18.181 10.5019L17.9958 9.90515L17.5326 8.43612L17.44 8.02295L19.7556 8Z" fill="#CA9C82"/>
<path d="M4 13.1201L4.16593 13.2603L4.54519 13.6109L4.75852 13.8446L5.28 14.3588V14.4055H5.32741L5.49333 14.5925L6.25185 15.3404L6.41778 15.5274L7.95852 17.0466L8.12444 17.2336L8.48 17.5841L8.21926 17.888L7.91111 18.2853L7.65037 18.6125L7.34222 19.0098L7.03407 19.3838L6.72593 19.7811L6.39407 20.2018L6.15704 20.5057L5.82519 20.903L5.65926 21.1133L5.42222 21.4172L4.94815 22.0015L4.6163 22.4222L4.33185 22.7961L4.07111 23.1234L4 23.1467V13.1201Z" fill="#CA9C82"/>
<path d="M23.1486 18.0267L23.266 18.1442L23.5714 18.5203L23.8533 18.8963L24.1822 19.3194L24.6991 19.9774L25.0279 20.4005L25.2159 20.6355L25.3333 20.8L25.0984 20.7295L24.5346 20.5415L23.6419 20.3065L23.0311 20.1655L22.3264 20.0479L21.6451 19.9774L20.7994 19.9304L18.9435 19.9069L18.5 20H17.5L16.9766 19.2959H17.4635L21.927 19.2724L22.0914 19.1078H22.1384V19.0608L23.1016 18.0972L23.1486 18.0267Z" fill="#CA9C82"/>
<path d="M32 29.2885L30.2278 28.4211L29.5856 28.2238L28.9064 27.9436L28.3241 27.7568L27.7904 27.6167L27.1112 27.4766L25.0248 27.1731L23.9332 27.033L23.2782 26.963L22.4776 26.8929L21.4344 26.8462H19.4694L18.1594 26.8929L17.9653 26.9163L17.5772 26.7762L17.0192 26.5193L16.5583 26.2391L16.0973 25.9823L15.7092 25.7955L15.2725 25.6554L14.9329 25.5853H14.5932L13.5016 25.632L12.8708 25.7021L12.604 25.7488H12.3128L11.5851 25.5853L10.6875 25.3519L9.98392 25.2118L9.42595 25.1417L8.98928 25.1184L8.62539 25.0016L7.92186 24.7214L7.55797 24.6047L7.1213 24.4879L7.04852 24.4646L7 24.3245V24.0209L7.09704 23.8341V23.7874L7.46093 23.6473L7.63075 23.624H9.49873L10.4691 23.694L11.1726 23.7641H11.6093L12.4827 23.5306L13.1134 23.3905L13.9625 23.2738H15.0784L15.4423 23.0403L15.782 22.8535L16.0488 22.7601L16.3884 22.69L17.1405 22.62L17.6742 22.5966L18.0624 22.3631L18.3292 22.2464L18.6006 22.2157L18.3292 22.1394L17.0108 21.8099L16.3144 21.64L15.6491 21.32L15.3165 21.1067L14.9838 20.8934L14.762 20.68L14.4234 20.3551L14.2051 20.1449L14.011 19.7714L13.9625 19.5846V19.1643L14.0838 19.0475L14.3264 18.8841L14.569 18.814H14.9571L15.5879 18.9074L16.2429 19.0475L16.8251 19.211L17.2375 19.3511L18.4505 19.818L18.7416 19.8881L20.6581 19.9114L21.8468 19.9815L22.5504 20.0749L23.3024 20.215L24.1758 20.4251L24.9763 20.6586L25.3402 20.7987L25.8497 21.0322L26.1893 21.219L26.6987 21.5459L26.9899 21.756L27.3052 22.0129L27.7419 22.4332L27.9117 22.62L28.2271 22.9002L28.5425 23.1103L28.9306 23.3205L29.3916 23.5306L30.1193 23.8108L30.8714 24.1143L31.5507 24.3945L32 24.5981V29.2885Z" fill="white"/>
</svg>
