<svg width="32" height="32" viewBox="0 0 32 32" fill="none" xmlns="http://www.w3.org/2000/svg">
<rect width="32" height="32" rx="5" fill="black"/>
<path d="M19.8301 7.72461L21.6455 9.27734V7.55469L29.9004 15.6152V16.6338L21.6455 24.6943V22.9727L19.8301 24.5254L16 27.8018L12.1699 24.5254L10.3545 22.9727V24.6943L2.09961 16.6338V15.6152L10.3545 7.55469V9.27734L12.1699 7.72461L16 4.44727L19.8301 7.72461Z" stroke="white" stroke-width="2.2"/>
<path d="M16.7412 4.96582L27.9912 14.8096L28.915 15.6182L28.0283 16.4688L16.7783 27.25L16 27.9961L15.2217 27.25L3.97168 16.4688L3.08496 15.6182L4.00879 14.8096L15.2588 4.96582L16 4.31738L16.7412 4.96582Z" stroke="white" stroke-width="2.25"/>
<path d="M16.875 9.65918V22.5898L16 23.2852L15.125 22.5898V9.65918L16 8.96387L16.875 9.65918Z" stroke="#047857" stroke-width="2"/>
<path d="M21.6875 19.0283L21.3242 18.7285L19.8125 17.4805V15.5244L22.5 17.8887V20.1436L21.6875 21.0371V19.0283Z" stroke="white" stroke-width="2"/>
<path d="M10.3125 12.2842L10.6758 12.584L12.1875 13.832L12.1875 15.7881L9.5 13.4238L9.5 11.1689L10.3125 10.2754L10.3125 12.2842Z" stroke="white" stroke-width="2"/>
</svg>
